<?xml version="1.0" standalone="no"?>
<!DOCTYPE svg PUBLIC "-//W3C//DTD SVG 20010904//EN"
 "http://www.w3.org/TR/2001/REC-SVG-20010904/DTD/svg10.dtd">
<svg version="1.0" xmlns="http://www.w3.org/2000/svg"
 width="700.000000pt" height="700.000000pt" viewBox="0 0 700.000000 700.000000"
 preserveAspectRatio="xMidYMid meet">
<metadata>
Created by potrace 1.11, written by Peter Selinger 2001-2013
</metadata>
<g transform="translate(0.000000,700.000000) scale(0.100000,-0.100000)"
fill="#000000" stroke="none">
<path d="M1449 6996 c-2 -2 -31 -7 -64 -10 -143 -16 -338 -74 -481 -143 -169
-82 -293 -169 -427 -301 -242 -238 -397 -536 -456 -877 -18 -106 -19 -194 -19
-2155 -1 -2193 -2 -2112 49 -2314 114 -451 430 -837 849 -1037 41 -20 98 -44
125 -53 28 -10 59 -22 70 -27 30 -12 172 -48 245 -61 48 -8 621 -12 2135 -14
2186 -3 2109 -4 2306 41 84 19 220 67 307 108 70 33 226 124 258 151 11 8 37
29 59 46 258 201 464 523 546 850 49 197 47 140 47 2305 1 1706 -2 2045 -14
2125 -53 354 -206 659 -460 914 -114 114 -268 223 -424 298 -73 35 -258 102
-312 113 -16 3 -40 8 -55 11 -154 32 -169 32 -2234 33 -1125 1 -2048 -1 -2050
-3z m4066 -640 c28 -4 64 -9 80 -12 98 -15 278 -92 371 -159 55 -40 158 -141
206 -205 78 -102 145 -252 174 -388 16 -79 19 -368 18 -2127 -1 -1545 -3
-1966 -14 -2025 -61 -356 -304 -642 -640 -754 -86 -28 -123 -35 -235 -44 -44
-4 -953 -7 -2020 -6 -1748 1 -1949 3 -2032 17 -386 69 -681 358 -768 753 -17
77 -20 380 -19 2124 1 1768 2 1964 17 2047 77 427 428 745 862 781 110 9 3938
7 4000 -2z"/>
<path d="M3563 4642 l-33 -3 0 -1205 c0 -662 3 -1205 8 -1205 29 -5 545 -3
548 2 2 4 4 222 4 485 1 525 4 553 61 671 57 118 159 190 280 198 90 6 155
-17 210 -75 77 -79 81 -112 80 -775 0 -264 2 -487 4 -495 4 -13 44 -15 280
-15 l275 0 1 35 c3 160 -1 1112 -5 1135 -2 17 -7 57 -11 89 -8 69 -45 187 -76
242 -105 190 -288 285 -534 279 -209 -6 -363 -77 -517 -240 l-48 -50 0 463 c0
433 -1 462 -17 463 -58 3 -484 3 -510 1z"/>
<path d="M2214 4539 c-2 -4 -4 -495 -4 -1091 0 -1159 0 -1139 -49 -1236 -30
-59 -97 -118 -160 -141 -61 -23 -102 -30 -198 -30 l-63 -1 0 -226 0 -225 146
2 c123 2 231 13 319 32 65 15 115 31 152 48 24 10 45 19 49 19 3 0 36 20 72
44 181 118 272 265 316 511 11 66 14 280 15 1188 1 609 -2 1108 -6 1108 -31 5
-586 3 -589 -2z"/>
</g>
</svg>
